<svg width="1920" height="800" viewBox="0 0 1920 800" xmlns="http://www.w3.org/2000/svg">
  <defs>
    <linearGradient id="g1" x1="0%" y1="0%" x2="100%" y2="100%">
      <stop offset="0%" style="stop-color:#1B1B2F"/>
      <stop offset="50%" style="stop-color:#2A2A4A"/>
      <stop offset="100%" style="stop-color:#1B1B2F"/>
    </linearGradient>
    <pattern id="scales" patternUnits="userSpaceOnUse" width="60" height="60">
      <path d="M0 30 L30 0 L60 30 L30 60 Z" fill="none" stroke="rgba(197,165,90,0.05)" stroke-width="1"/>
    </pattern>
  </defs>
  <rect width="1920" height="800" fill="url(#g1)"/>
  <rect width="1920" height="800" fill="url(#scales)"/>
  <g opacity="0.1">
    <path d="M200 600 L300 500 L400 600 L500 450 L600 620 L700 480 L800 650 L900 400 L1000 600 L1100 350 L1200 550 L1300 300 L1400 500 L1500 250 L1600 450 L1700 200" fill="none" stroke="#C5A55A" stroke-width="2"/>
    <path d="M0 700 L1920 700" stroke="#C5A55A" stroke-width="1"/>
  </g>
  <text x="960" y="350" text-anchor="middle" font-family="Cinzel, Georgia, serif" font-size="64" fill="#C5A55A" font-weight="700">Studio Legale</text>
  <text x="960" y="430" text-anchor="middle" font-family="Playfair Display, Georgia, serif" font-size="48" fill="#D4C17A" font-weight="400">Mandroneniglio</text>
  <text x="960" y="500" text-anchor="middle" font-family="Lato, sans-serif" font-size="20" fill="#AAAAAA" font-weight="300">Eccellenza legale · Diritto Civile, Penale e Amministrativo</text>
  <line x1="760" y1="540" x2="1160" y2="540" stroke="#C5A55A" stroke-width="2" opacity="0.5"/>
</svg>
